#!OML:ASF I:\Random Stuff\random\construction\7_22_03\Session 2\subj1.ASF
:FULLY-SPECIFIED
:DEGREES
1624
root 5.91424 17.367 -10.7953 37.6336 -7.51547 -8.38323
lowerback 35.4941 0.957966 -6.7926
upperback 10.762 -1.81725 -6.60781
thorax -5.97385 -0.812914 -2.73848
lowerneck -14.7892 -7.72004 -13.3921
upperneck 30.181 -10.7424 11.4706
head 14.2176 -4.76932 5.10585
rclavicle 2.54444e-014 7.95139e-016
rhumerus -16.6423 29.586 -64.8011
rradius 115.765
rwrist 25.111
rhand -0.372899 38.3223
rfingers 7.12502
rthumb 25.2332 9.97075
lclavicle 2.54444e-014 7.95139e-016
lhumerus 34.3637 -50.4455 55.315
lradius 86.9903
lwrist 349.36
lhand 68.8177 -54.7091
lfingers 7.12502
lthumb -105.935 1378.98
rfemur -54.478 -8.18494 35.4828
rtibia 15.7609
rfoot 1.07169 3.01687
rtoes -22.6867
lfemur -61.8123 3.5101 -4.95272
ltibia 36.7372
lfoot -11.4605 -0.659668
ltoes -27.0221
1625
root 5.89777 17.3686 -10.7851 37.8868 -7.37596 -8.43535
lowerback 35.6641 0.869372 -6.73063
upperback 10.8198 -1.9224 -6.68349
thorax -5.9793 -0.858139 -2.81438
lowerneck -14.6391 -7.7284 -13.4282
upperneck 30.2699 -10.7369 11.3945
head 14.2201 -4.78446 5.08834
rclavicle -9.54166e-015 2.42517e-014
rhumerus -16.7505 29.4155 -64.7875
rradius 116.048
rwrist 25.5821
rhand 0.134767 37.8893
rfingers 7.12502
rthumb 25.7195 9.60716
lclavicle -9.54166e-015 2.42517e-014
lhumerus 31.1584 -46.1569 59.7039
lradius 87.016
lwrist 313.195
lhand 27.7476 -79.5096
lfingers 7.12502
lthumb -128.329 1200.79
rfemur -54.6816 -8.27013 35.786
rtibia 15.7052
rfoot 1.1306 3.08754
rtoes -21.3441
lfemur -62.057 3.44987 -4.70492
ltibia 36.7454
lfoot -11.4267 -0.550563
ltoes -27.1992
1626
root 5.87619 17.372 -10.7728 38.1356 -7.36492 -8.60498
lowerback 35.9358 0.891359 -6.78834
upperback 10.7568 -1.95268 -6.72331
thorax -6.01439 -0.866927 -2.86517
lowerneck -14.5492 -7.71867 -13.4585
upperneck 30.3249 -10.7102 11.3537
head 14.2193 -4.78399 5.0859
rclavicle -3.18055e-014 -3.1408e-014
rhumerus -16.8373 29.0223 -64.7643
rradius 116.534
rwrist 26.3729
rhand 0.571821 37.4687
rfingers 7.12502
rthumb 26.138 9.24781
lclavicle -3.18055e-014 -3.1408e-014
lhumerus 30.6892 -45.5975 60.3734
lradius 87.5992
lwrist 307.132
lhand 21.7425 -80.9522
lfingers 7.12502
lthumb -133.845 1202.08
rfemur -54.809 -8.15011 36.0676
rtibia 15.6677
rfoot 1.09594 3.14938
rtoes -20.0552
lfemur -62.2136 3.54142 -4.39684
ltibia 36.7738
lfoot -11.451 -0.43671
ltoes -27.1661
1627
root 5.86002 17.368 -10.7608 38.4107 -7.2861 -8.64779
lowerback 36.0863 0.786581 -6.70205
upperback 10.7948 -2.07534 -6.85751
thorax -6.04017 -0.918193 -3.00901
lowerneck -14.4877 -7.70894 -13.5303
upperneck 30.324 -10.7127 11.4553
head 14.2187 -4.78415 5.14233
rclavicle 4.13472e-014 6.95746e-014
rhumerus -16.8957 28.637 -64.7958
rradius 117.042
rwrist 27.1022
rhand 1.12006 36.934
rfingers 7.12502
rthumb 26.6628 8.79188
lclavicle 4.13472e-014 6.95746e-014
lhumerus 33.1033 -49.1918 57.1991
lradius 87.3214
lwrist 335.597
lhand 54.136 -68.9658
lfingers 7.12502
lthumb -107.609 1177.09
rfemur -55.0752 -8.16548 36.3218
rtibia 15.6768
rfoot 1.05192 3.26979
rtoes -19.8503
lfemur -62.4796 3.45006 -4.12452
ltibia 36.8158
lfoot -11.4327 -0.217763
ltoes -27.3468
1628
root 5.84455 17.3635 -10.7493 38.6478 -7.23809 -8.69765
lowerback 36.2586 0.64298 -6.62149
upperback 10.8148 -2.25356 -7.02062
thorax -6.09679 -0.993863 -3.16026
lowerneck -14.4318 -7.65983 -13.6652
upperneck 30.3451 -10.6583 11.6015
head 14.2271 -4.76272 5.24045
rclavicle 6.36111e-015 2.98177e-014
rhumerus -16.9444 28.5435 -64.8364
rradius 117.734
rwrist 27.8557
rhand 1.16045 35.6904
rfingers 7.12502
rthumb 26.7014 7.55411
lclavicle 6.36111e-015 2.98177e-014
lhumerus 30.1951 -44.8344 61.2457
lradius 87.9886
lwrist 300.186
lhand 15.2517 -82.6209
lfingers 7.12502
lthumb -139.911 1202.58
rfemur -55.2926 -8.15312 36.5492
rtibia 15.6778
rfoot 1.00633 3.38409
rtoes -19.7556
lfemur -62.7142 3.45235 -3.93578
ltibia 36.8957
lfoot -11.4415 -0.0867929
ltoes -27.7512
1629
root 5.82964 17.361 -10.7371 38.8252 -7.22468 -8.77903
lowerback 36.4891 0.567835 -6.52493
upperback 10.8535 -2.34839 -7.17167
thorax -6.15244 -1.03124 -3.33708
lowerneck -14.5398 -7.6598 -13.7649
upperneck 30.4339 -10.6629 11.7248
head 14.3087 -4.75924 5.31185
rclavicle 6.99722e-014 4.53229e-014
rhumerus -17.0298 28.3232 -64.7806
rradius 118.496
rwrist 28.593
rhand 2.13081 34.1907
rfingers 7.12502
rthumb 27.6297 6.19952
lclavicle 6.99722e-014 4.53229e-014
lhumerus 33.2886 -49.3553 57.2998
lradius 86.6325
lwrist 337.386
lhand 57.5031 -67.3805
lfingers 7.12502
lthumb -106.124 1351.32
rfemur -55.4535 -8.16279 36.8223
rtibia 15.7175
rfoot 0.878117 3.53425
rtoes -19.6858
lfemur -62.8756 3.54326 -3.79229
ltibia 37.0079
lfoot -11.4986 -0.0584416
ltoes -27.9431
1630
root 5.81501 17.3577 -10.7247 39.0029 -7.31214 -8.86332
lowerback 36.6965 0.538188 -6.54078
upperback 10.8881 -2.42645 -7.33368
thorax -6.19775 -1.06212 -3.47377
lowerneck -14.7572 -7.62951 -13.7942
upperneck 30.5695 -10.6054 11.7565
head 14.4129 -4.72792 5.34419
rclavicle 2.8625e-014 2.90226e-014
rhumerus -17.0894 28.3465 -64.7116
rradius 119.215
rwrist 29.2555
rhand 2.87631 32.1973
rfingers 7.12502
rthumb 28.3424 4.32238
lclavicle 2.8625e-014 2.90226e-014
lhumerus 35.2271 -51.5704 54.9904
lradius 86.8141
lwrist 357.44
lhand 79.6304 -29.6362
lfingers 7.12502
lthumb -111.951 1380.74
rfemur -55.6193 -8.19349 37.1436
rtibia 15.7497
rfoot 0.747441 3.82931
rtoes -19.8063
lfemur -63.0043 3.63181 -3.63854
ltibia 37.1418
lfoot -11.5553 0.0714969
ltoes -28.143
1631
root 5.80066 17.352 -10.7124 39.2513 -7.48366 -8.93782
lowerback 36.7628 0.496432 -6.6665
upperback 10.9085 -2.54562 -7.5186
thorax -6.20554 -1.11395 -3.56306
lowerneck -14.7462 -7.49127 -13.8218
upperneck 30.3138 -10.4183 11.8751
head 14.2723 -4.63799 5.42245
rclavicle -8.5875e-014 -4.96962e-014
rhumerus -16.9738 28.4012 -64.5079
rradius 119.85
rwrist 30.1009
rhand 3.79546 30.6973
rfingers 7.12502
rthumb 29.2204 2.97169
lclavicle -8.5875e-014 -4.96962e-014
lhumerus 33.7984 -49.6002 57.0279
lradius 85.9565
lwrist 340.828
lhand 63.2019 -63.6054
lfingers 7.12502
lthumb -105.022 1367.74
rfemur -55.8198 -8.1938 37.4673
rtibia 15.6788
rfoot 0.706598 4.22667
rtoes -19.7911
lfemur -63.1948 3.74559 -3.50499
ltibia 37.301
lfoot -11.6074 0.272483
ltoes -28.3523
1632
root 5.78715 17.3485 -10.7004 39.5129 -7.69878 -8.96906
lowerback 36.7635 0.510545 -6.82018
upperback 10.9506 -2.59813 -7.70007
thorax -6.16265 -1.13668 -3.65913
lowerneck -14.6802 -7.57134 -13.8886
upperneck 30.3578 -10.4923 11.7921
head 14.2899 -4.68833 5.38803
rclavicle 1.59028e-014 3.22031e-014
rhumerus -16.9458 28.576 -64.305
rradius 120.604
rwrist 30.706
rhand 5.25791 28.554
rfingers 7.12502
rthumb 30.6159 1.08005
lclavicle 1.59028e-014 3.22031e-014
lhumerus 35.5951 -51.3054 55.1108
lradius 86.5331
lwrist 358.086
lhand 73.2377 -62.9595
lfingers 7.12502
lthumb -112.288 1431.32
rfemur -56.0264 -8.13899 37.67
rtibia 15.59
rfoot 0.69587 4.5527
rtoes -19.4963
lfemur -63.392 3.83339 -3.41221
ltibia 37.4631
lfoot -11.6996 0.513469
ltoes -28.313
